<?xml version="1.0" encoding="utf-8"?>
<svg xmlns="http://www.w3.org/2000/svg" viewBox="0 0 48 48" width="25" height="25">
  <path d="M11.972656 7C9.8766562 7 7.9917344 8.1640625 7.0527344 10.039062L4.7929688 14.5625C4.2739687 15.5985 4 16.758969 4 17.917969L4 36.5C4 38.981 6.019 41 8.5 41L39.5 41C41.981 41 44 38.981 44 36.5L44 19.5C44 17.019 41.981 15 39.5 15L27.5 15C26.929 15 26.414203 14.682875 26.158203 14.171875L24.09375 10.039062C23.15475 8.1640625 21.270828 7 19.173828 7L11.972656 7 z M 24.470703 7C24.403703 7 24.339437 7.0145781 24.273438 7.0175781C24.917438 7.6175781 25.471813 8.3245312 25.882812 9.1445312L27.808594 13L37.427734 13L35.947266 10.039062C35.008266 8.1640625 33.123344 7 31.027344 7L24.470703 7 z M 12.5 13L18.5 13C19.328 13 20 13.671 20 14.5C20 15.329 19.328 16 18.5 16L12.5 16C11.672 16 11 15.329 11 14.5C11 13.671 11.672 13 12.5 13 z" fill="#FF0004" />
</svg>