<?xml version="1.0" encoding="utf-8"?>
<svg xmlns="http://www.w3.org/2000/svg" viewBox="0 0 50 50" width="25" height="25">
  <path d="M24.78125 2.9375C23.75 3.050781 22.976563 3.933594 23 4.96875L23 28.6875L19.40625 25.09375C18.984375 24.660156 18.386719 24.441406 17.78125 24.5C17.003906 24.574219 16.339844 25.097656 16.085938 25.835938C15.828125 26.578125 16.027344 27.398438 16.59375 27.9375L25 36.34375L33.40625 27.9375C33.929688 27.4375 34.144531 26.695313 33.964844 25.992188C33.785156 25.292969 33.242188 24.742188 32.542969 24.554688C31.84375 24.367188 31.097656 24.574219 30.59375 25.09375L27 28.6875L27 4.96875C27.007813 4.425781 26.796875 3.90625 26.414063 3.523438C26.03125 3.140625 25.511719 2.929688 24.96875 2.9375C24.90625 2.933594 24.84375 2.933594 24.78125 2.9375 Z M 2 36L2 41.6875C2 43.164063 2.449219 44.59375 3.5 45.59375C4.550781 46.59375 5.996094 47 7.4375 47L42.59375 47C44.054688 47 45.5 46.585938 46.53125 45.5625C47.5625 44.539063 48 43.058594 48 41.59375L48 36L44 36L44 41.59375C44 42.328125 43.84375 42.597656 43.71875 42.71875C43.59375 42.839844 43.332031 43 42.59375 43L7.4375 43C6.679688 43 6.402344 42.832031 6.28125 42.71875C6.160156 42.605469 6 42.414063 6 41.6875L6 36Z" fill="#5EFF00" />
</svg>