<?xml version="1.0" encoding="utf-8"?>
<svg xmlns="http://www.w3.org/2000/svg" viewBox="0 0 48 48" width="25" height="25">
  <path d="M23.992188 4.9960938 A 2.0002 2.0002 0 0 0 23.205078 5.1464844C17.379981 5.5457461 12.619854 10.014685 12.041016 15.800781 A 2.0002 2.0002 0 1 0 16.021484 16.197266C16.425522 12.158495 19.827555 8.9960936 23.992188 8.9960938C28.42813 8.9960938 32.003906 12.570326 32.003906 17.001953C32.003906 20.766832 30.515504 21.752197 28.195312 23.544922C25.875121 25.337647 22.663236 27.785344 22.017578 32.740234 A 2.0002 2.0002 0 1 0 25.982422 33.255859C26.447764 29.684749 28.236567 28.568463 30.640625 26.710938C33.044683 24.853411 36.003906 22.104075 36.003906 17.001953C36.003906 10.691308 31.019692 5.6125565 24.816406 5.1640625 A 2.0002 2.0002 0 0 0 23.992188 4.9960938 z M 24 40.001953C22.898 40.001953 22.001953 40.898 22.001953 42C22.001953 43.102 22.898 43.998047 24 43.998047C25.102 43.998047 25.998047 43.102 25.998047 42C25.998047 40.898 25.102 40.001953 24 40.001953 z" fill="#FF0004" />
</svg>