<?xml version="1.0" encoding="utf-8"?>
<svg xmlns="http://www.w3.org/2000/svg" viewBox="0 0 48 48" width="25" height="25">
  <path d="M23.976562 4.9785156 A 1.50015 1.50015 0 0 0 22.5 6.5L22.5 7L11.5 7C8.468 7 6 9.467 6 12.5L6 26.5C6 29.533 8.468 32 11.5 32L22.5 32L22.5 41.5 A 1.50015 1.50015 0 1 0 25.5 41.5L25.5 32L36.5 32C39.532 32 42 29.533 42 26.5L42 12.5C42 9.467 39.532 7 36.5 7L25.5 7L25.5 6.5 A 1.50015 1.50015 0 0 0 23.976562 4.9785156 z M 20.5 12C21.328 12 22 12.671 22 13.5L22 21C22 21.829 21.328 22.5 20.5 22.5C19.672 22.5 19 21.829 19 21L19 13.5C19 12.671 19.672 12 20.5 12 z M 27.5 12C28.328 12 29 12.671 29 13.5L29 21C29 21.829 28.328 22.5 27.5 22.5C26.672 22.5 26 21.829 26 21L26 13.5C26 12.671 26.672 12 27.5 12 z M 20.5 24C21.328 24 22 24.672 22 25.5C22 26.328 21.328 27 20.5 27C19.672 27 19 26.328 19 25.5C19 24.672 19.672 24 20.5 24 z M 27.5 24C28.328 24 29 24.672 29 25.5C29 26.328 28.328 27 27.5 27C26.672 27 26 26.328 26 25.5C26 24.672 26.672 24 27.5 24 z" fill="#FB373A" />
</svg>