<?xml version="1.0" encoding="utf-8"?>
<svg xmlns="http://www.w3.org/2000/svg" viewBox="0 0 48 48" width="25" height="25">
  <path d="M20.5 5 A 2.5 2.5 0 0 0 18.326172 8.7324219C16.700149 9.3114481 15.23049 10.21452 13.992188 11.369141 A 2.5 2.5 0 0 0 11.892578 10.222656 A 2.5 2.5 0 0 0 11.230469 15.128906C10.510398 16.632656 10.083476 18.298528 10.021484 20.058594 A 2.5 2.5 0 0 0 9.5 20 A 2.5 2.5 0 0 0 9.5 25 A 2.5 2.5 0 0 0 10.726562 24.675781C11.441909 26.685569 12.65119 28.461893 14.220703 29.849609C14.730703 29.949609 15.31 30 16 30C17.46 30 18.56 29.519062 19.75 28.539062C16.41 27.399062 14 24.23 14 20.5C14 15.81 17.81 12 22.5 12C26.41 12 29.709453 14.65 30.689453 18.25C31.789453 17.57 33.000078 16.970703 34.330078 16.470703C33.754782 14.785906 32.821809 13.268142 31.632812 11.992188 A 2.5 2.5 0 0 0 30.277344 7.3925781 A 2.5 2.5 0 0 0 27.869141 9.2246094C26.366273 8.5054187 24.700247 8.0793569 22.941406 8.0175781 A 2.5 2.5 0 0 0 20.5 5 z M 22.5 18 A 2.5 2.5 0 0 0 22.5 23 A 2.5 2.5 0 0 0 22.5 18 z M 43 18C34.375 18 29.595804 22.320852 26.138672 26.162109C24.410106 28.082738 22.928621 29.867682 21.376953 31.082031C19.860054 32.26917 18.343667 32.945797 16.132812 32.976562 A 2.0002 2.0002 0 0 0 15.84375 32.980469C13.296331 32.952659 11.817086 32.382832 10.513672 31.480469C9.1780834 30.555838 7.9926299 29.164504 6.4140625 27.585938 A 2.0002 2.0002 0 1 0 3.5859375 30.414062C4.3745376 31.202663 5.1583541 32.037899 6.0019531 32.861328 A 2.0002 2.0002 0 0 0 6 33L6 40 A 2.0002 2.0002 0 1 0 10 40L10 35.617188C11.145919 36.163421 12.482638 36.52217 14 36.71875L14 40 A 2.0002 2.0002 0 1 0 18 40L18 36.638672C19.48208 36.386488 20.816285 35.947608 22 35.279297L22 40 A 2.0002 2.0002 0 1 0 26 40L26 32.207031C27.079892 31.100357 28.103252 29.957975 29.111328 28.837891C29.401395 28.515594 29.708166 28.230978 30 27.917969L30 40 A 2.0002 2.0002 0 1 0 34 40L34 24.443359C35.160485 23.689155 36.447507 23.048516 38 22.628906L38 40 A 2.0002 2.0002 0 1 0 42 40L42 22.115234C42.360878 22.098494 42.617344 22 43 22 A 2.0002 2.0002 0 1 0 43 18 z" fill="#FF0004" />
</svg>